# xmcd
#
# Track frame offsets: 
#        150
#        16779
#        38206
#        53540
#        79869
#        100732
#        124387
#        140765
#        160027
#        170720
#
# Disc length: 2744 seconds
#
# Revision: 0
# Processed by: cddbd v1.5.2PL0 Copyright (c) Steve Scherf et al.
# Submitted via: ExactAudioCopy v1.3
#
DISCID=7c0ab60a
DTITLE=Decio Caetano - The Colors Of Blues
DYEAR=2019
DGENRE=Electric Blues
TTITLE0=Bill's Blues
TTITLE1=Thank You, Lord
TTITLE2=I Don't Need Nobody
TTITLE3=You Are The One
TTITLE4=Blues For South America
TTITLE5=My Home Town
TTITLE6=You Got Me
TTITLE7=I Hate To Say Goodbye
TTITLE8=Going To Mississipi
TTITLE9=Friend Of God
EXTD=
EXTT0=
EXTT1=
EXTT2=
EXTT3=
EXTT4=
EXTT5=
EXTT6=
EXTT7=
EXTT8=
EXTT9=
PLAYORDER=
